<svg width="24" height="24" viewBox="0 0 24 24" fill="none" xmlns="http://www.w3.org/2000/svg">
  <path fill-rule="evenodd" clip-rule="evenodd" d="M8.95 2.342a1 1 0 10-1.9.316l.5 3a1 1 0 101.9-.316l-.5-3zm6.5 0a1 1 0 00-1.9.316l.5 3a1 1 0 101.9-.316l-.5-3zM5.5 6A3.5 3.5 0 002 9.5v8A3.5 3.5 0 005.5 21h13a3.5 3.5 0 003.5-3.5v-8A3.5 3.5 0 0018.5 6h-13zM4 9.5A1.5 1.5 0 015.5 8h13A1.5 1.5 0 0120 9.5v8a1.5 1.5 0 01-1.5 1.5h-13A1.5 1.5 0 014 17.5v-8zm6 2a1 1 0 100 2 1 1 0 000-2zm4 1a1 1 0 112 0 1 1 0 01-2 0z" fill="#00A1D6"/>
</svg>